<svg class="alo-logo__svg" viewBox="0 0 71 48" width="71" xmlns="http://www.w3.org/2000/svg">
  <path d="M22.826 19.591h5.771v27.43h-5.77v-1.928A13.973 13.973 0 0114.298 48C6.414 48 0 41.409 0 33.306c0-8.103 6.414-14.694 14.299-14.694 3.193 0 6.145 1.082 8.527 2.907zm-.145 13.715c0-4.861-3.76-8.816-8.382-8.816-4.623 0-8.382 3.955-8.382 8.816 0 4.862 3.76 8.816 8.382 8.816s8.382-3.954 8.382-8.816zM39.434 47.02h-5.906V0h5.906zm2.969-13.714c0-8.103 6.414-14.694 14.298-14.694C64.586 18.612 71 25.203 71 33.306 71 41.41 64.586 48 56.701 48s-14.298-6.591-14.298-14.694zm5.916 0c0 4.862 3.76 8.816 8.382 8.816 4.623 0 8.382-3.954 8.382-8.816 0-4.861-3.76-8.816-8.382-8.816s-8.382 3.955-8.382 8.816z"></path>
  <desc>Alo</desc>
</svg>