<?xml version="1.0" encoding="utf-8"?>
<!-- Generator: Adobe Illustrator 19.0.0, SVG Export Plug-In . SVG Version: 6.00 Build 0)  -->
<svg version="1.1" id="layer" xmlns="http://www.w3.org/2000/svg" xmlns:xlink="http://www.w3.org/1999/xlink" x="0px" y="0px"
	 viewBox="-153 -46 652 652" style="enable-background:new -153 -46 652 652;" xml:space="preserve">
<path d="M41.6,234h60.1v285.8H41.6v-20.1C16.2,519.4-15.1,530-47.2,530c-82.1,0-148.9-68.6-148.9-153.1c0-84.4,66.8-153,148.9-153
	c33.3,0,64,11.2,88.9,30.3V234z M40.1,376.9c0-50.7-39.2-91.8-87.3-91.8c-48.1,0-87.3,41.2-87.3,91.8c0,50.6,39.2,91.8,87.3,91.8
	C0.9,468.8,40.1,427.6,40.1,376.9L40.1,376.9z M214.6,519.8h-61.5V30h61.5V519.8z M245.5,376.9c0-84.4,66.8-153,149-153
	c82.1,0,148.9,68.6,148.9,153c0,84.4-66.8,153.1-148.9,153.1C312.3,530,245.5,461.4,245.5,376.9L245.5,376.9z M307.1,376.9
	c0,50.6,39.2,91.8,87.3,91.8c48.1,0,87.3-41.2,87.3-91.8c0-50.7-39.2-91.8-87.3-91.8C346.3,285.1,307.1,326.3,307.1,376.9
	L307.1,376.9z M307.1,376.9"/>
</svg>
