<svg version="1.1" xmlns="http://www.w3.org/2000/svg" viewBox="0 0 1777.1580830500843 1021.7882994937461" width="1777.1580830500843" height="1021.7882994937461" filter="invert(93%) hue-rotate(180deg)">
  <!-- svg-source:excalidraw -->
  
  <defs>
    <style class="style-fonts">
      @font-face {
        font-family: "Virgil";
        src: url("https://excalidraw.com/Virgil.woff2");
      }
      @font-face {
        font-family: "Cascadia";
        src: url("https://excalidraw.com/Cascadia.woff2");
      }
      @font-face {
        font-family: "Assistant";
        src: url("https://excalidraw.com/Assistant-Regular.woff2");
      }
    </style>
    
  </defs>
  <rect x="0" y="0" width="1777.1580830500843" height="1021.7882994937461" fill="#ffffff"></rect><g stroke-linecap="round" transform="translate(315.5881563242874 84.11406063750485) rotate(0 119.15843373277716 102.15018824088317)"><path d="M32 0 C74.97 -0.73, 116.38 0.76, 206.32 0 M32 0 C68.7 1.85, 104.97 1.35, 206.32 0 M206.32 0 C227.59 0.13, 239.86 10.34, 238.32 32 M206.32 0 C225.39 1.95, 238.83 11.42, 238.32 32 M238.32 32 C239.41 73.11, 238.03 112.03, 238.32 172.3 M238.32 32 C238.62 61.06, 238.97 89.86, 238.32 172.3 M238.32 172.3 C236.56 192.34, 227.17 205.31, 206.32 204.3 M238.32 172.3 C238.96 192.61, 227.28 203.02, 206.32 204.3 M206.32 204.3 C140.89 206.92, 71.91 206.03, 32 204.3 M206.32 204.3 C147.19 205.18, 88.94 205.34, 32 204.3 M32 204.3 C12.27 204.23, 1.9 194.35, 0 172.3 M32 204.3 C11.35 203.23, -1.37 194.6, 0 172.3 M0 172.3 C-0.06 140.52, -0.72 106.42, 0 32 M0 172.3 C-1.15 132.23, -0.03 94.67, 0 32 M0 32 C1.47 12.36, 10.74 1.49, 32 0 M0 32 C-0.04 9.07, 11.32 -0.71, 32 0" stroke="#1e1e1e" stroke-width="2" fill="none"></path></g><g transform="translate(330.51565315347074 108.3002493542206) rotate(0 98.41989898681638 75)"><text x="0" y="0" font-family="Virgil, Segoe UI Emoji" font-size="20px" fill="#1e1e1e" text-anchor="start" style="white-space: pre;" direction="ltr" dominant-baseline="text-before-edge">User</text><text x="0" y="25" font-family="Virgil, Segoe UI Emoji" font-size="20px" fill="#1e1e1e" text-anchor="start" style="white-space: pre;" direction="ltr" dominant-baseline="text-before-edge">- id</text><text x="0" y="50" font-family="Virgil, Segoe UI Emoji" font-size="20px" fill="#1e1e1e" text-anchor="start" style="white-space: pre;" direction="ltr" dominant-baseline="text-before-edge">- githubId</text><text x="0" y="75" font-family="Virgil, Segoe UI Emoji" font-size="20px" fill="#1e1e1e" text-anchor="start" style="white-space: pre;" direction="ltr" dominant-baseline="text-before-edge">- username</text><text x="0" y="100" font-family="Virgil, Segoe UI Emoji" font-size="20px" fill="#1e1e1e" text-anchor="start" style="white-space: pre;" direction="ltr" dominant-baseline="text-before-edge">- sessions Session[]</text><text x="0" y="125" font-family="Virgil, Segoe UI Emoji" font-size="20px" fill="#1e1e1e" text-anchor="start" style="white-space: pre;" direction="ltr" dominant-baseline="text-before-edge">- cart Cart[]</text></g><g stroke-linecap="round" transform="translate(623.1761804640978 86.87678026436018) rotate(0 121.82879638671875 84.14328288034034)"><path d="M32 0 C94.83 1.68, 160.74 -0.41, 211.66 0 M32 0 C101.54 -0.5, 170.16 -1.18, 211.66 0 M211.66 0 C233.34 1.87, 242.62 12.58, 243.66 32 M211.66 0 C234.61 -1.08, 244.34 10.55, 243.66 32 M243.66 32 C244.57 69.24, 242.05 108.98, 243.66 136.29 M243.66 32 C244.33 56.75, 243.16 81.97, 243.66 136.29 M243.66 136.29 C242.57 156.39, 231.67 169.58, 211.66 168.29 M243.66 136.29 C243.4 157.15, 231.15 167.95, 211.66 168.29 M211.66 168.29 C146.76 167.12, 81.41 170.25, 32 168.29 M211.66 168.29 C170.63 169.92, 130.04 168.41, 32 168.29 M32 168.29 C11.86 167.02, 0.34 156.18, 0 136.29 M32 168.29 C10.75 169.81, -0.71 158.78, 0 136.29 M0 136.29 C0.94 113.73, -0.57 93.93, 0 32 M0 136.29 C-0.64 100.67, -0.48 64.47, 0 32 M0 32 C-1.74 8.67, 9.61 -1.2, 32 0 M0 32 C-0.31 10.28, 12.87 -1.09, 32 0" stroke="#1e1e1e" stroke-width="2" fill="none"></path></g><g transform="translate(639.9101733430336 111.3220104511989) rotate(0 57.32994842529297 62.5)"><text x="0" y="0" font-family="Virgil, Segoe UI Emoji" font-size="20px" fill="#1e1e1e" text-anchor="start" style="white-space: pre;" direction="ltr" dominant-baseline="text-before-edge">Session</text><text x="0" y="25" font-family="Virgil, Segoe UI Emoji" font-size="20px" fill="#1e1e1e" text-anchor="start" style="white-space: pre;" direction="ltr" dominant-baseline="text-before-edge">- id</text><text x="0" y="50" font-family="Virgil, Segoe UI Emoji" font-size="20px" fill="#1e1e1e" text-anchor="start" style="white-space: pre;" direction="ltr" dominant-baseline="text-before-edge">- userId</text><text x="0" y="75" font-family="Virgil, Segoe UI Emoji" font-size="20px" fill="#1e1e1e" text-anchor="start" style="white-space: pre;" direction="ltr" dominant-baseline="text-before-edge">- expiresAt</text><text x="0" y="100" font-family="Virgil, Segoe UI Emoji" font-size="20px" fill="#1e1e1e" text-anchor="start" style="white-space: pre;" direction="ltr" dominant-baseline="text-before-edge">- user User</text></g><g stroke-linecap="round" transform="translate(306.06794406125016 485.31169380010124) rotate(0 125.45280913184331 94.18694945474016)"><path d="M32 0 C77.54 0.83, 123.91 1.17, 218.91 0 M32 0 C101.37 -0.03, 169.6 -0.03, 218.91 0 M218.91 0 C241.53 -0.65, 249.67 12.14, 250.91 32 M218.91 0 C242.35 0.52, 250.62 12.73, 250.91 32 M250.91 32 C252.43 64.7, 252.97 94.6, 250.91 156.37 M250.91 32 C251.53 65.2, 250.67 98.52, 250.91 156.37 M250.91 156.37 C252.75 178.32, 241.73 188.07, 218.91 188.37 M250.91 156.37 C249.01 177.65, 241.9 190.48, 218.91 188.37 M218.91 188.37 C164.16 191.61, 110.42 188.32, 32 188.37 M218.91 188.37 C145.67 189.72, 72.1 189.36, 32 188.37 M32 188.37 C10.58 188.33, -1.32 179.08, 0 156.37 M32 188.37 C12.41 187.51, 0.87 179.45, 0 156.37 M0 156.37 C-0.58 125.59, -0.62 94.21, 0 32 M0 156.37 C-0.49 117.83, -1.92 80.41, 0 32 M0 32 C-1.15 9.8, 8.75 0.58, 32 0 M0 32 C-2.28 8.7, 12.71 0.12, 32 0" stroke="#1e1e1e" stroke-width="2" fill="none"></path></g><g transform="translate(338.26459767646804 518.5146311734902) rotate(0 95.04991912841797 62.5)"><text x="0" y="0" font-family="Virgil, Segoe UI Emoji" font-size="20px" fill="#1e1e1e" text-anchor="start" style="white-space: pre;" direction="ltr" dominant-baseline="text-before-edge">Cart</text><text x="0" y="25" font-family="Virgil, Segoe UI Emoji" font-size="20px" fill="#1e1e1e" text-anchor="start" style="white-space: pre;" direction="ltr" dominant-baseline="text-before-edge">- id</text><text x="0" y="50" font-family="Virgil, Segoe UI Emoji" font-size="20px" fill="#1e1e1e" text-anchor="start" style="white-space: pre;" direction="ltr" dominant-baseline="text-before-edge">- userId @unique</text><text x="0" y="75" font-family="Virgil, Segoe UI Emoji" font-size="20px" fill="#1e1e1e" text-anchor="start" style="white-space: pre;" direction="ltr" dominant-baseline="text-before-edge">- items CartItem[]</text><text x="0" y="100" font-family="Virgil, Segoe UI Emoji" font-size="20px" fill="#1e1e1e" text-anchor="start" style="white-space: pre;" direction="ltr" dominant-baseline="text-before-edge">- user User</text></g><g stroke-linecap="round" transform="translate(959.0747431101653 475.9634461448775) rotate(0 127.79206260999877 124.92171936496635)"><path d="M32 0 C99.18 -0.27, 167.1 0.94, 223.58 0 M32 0 C80.68 2.38, 126.84 2.22, 223.58 0 M223.58 0 C246.53 -0.69, 254.79 12.29, 255.58 32 M223.58 0 C246.68 -0.45, 254.49 10.9, 255.58 32 M255.58 32 C258.53 74.23, 255.88 118.3, 255.58 217.84 M255.58 32 C257.66 80.22, 256.58 130.48, 255.58 217.84 M255.58 217.84 C254.12 240.74, 244.57 249.52, 223.58 249.84 M255.58 217.84 C254.2 241.04, 247.09 249.99, 223.58 249.84 M223.58 249.84 C158.19 251.92, 95.06 250.57, 32 249.84 M223.58 249.84 C147.8 247.91, 71.95 249.15, 32 249.84 M32 249.84 C9.03 249.81, -1.29 238.16, 0 217.84 M32 249.84 C9.36 249, 0.8 237.84, 0 217.84 M0 217.84 C1.27 149.13, 0.22 78.01, 0 32 M0 217.84 C1.34 148.08, 0.81 78.49, 0 32 M0 32 C-1.02 12.58, 9.75 1.38, 32 0 M0 32 C-1.43 9.87, 11.05 -1.72, 32 0" stroke="#1e1e1e" stroke-width="2" fill="none"></path></g><g transform="translate(978.9903750913978 501.7609702232312) rotate(0 78.2099380493164 112.5)"><text x="0" y="0" font-family="Virgil, Segoe UI Emoji" font-size="20px" fill="#1e1e1e" text-anchor="start" style="white-space: pre;" direction="ltr" dominant-baseline="text-before-edge">Product</text><text x="0" y="25" font-family="Virgil, Segoe UI Emoji" font-size="20px" fill="#1e1e1e" text-anchor="start" style="white-space: pre;" direction="ltr" dominant-baseline="text-before-edge">- id</text><text x="0" y="50" font-family="Virgil, Segoe UI Emoji" font-size="20px" fill="#1e1e1e" text-anchor="start" style="white-space: pre;" direction="ltr" dominant-baseline="text-before-edge">- name</text><text x="0" y="75" font-family="Virgil, Segoe UI Emoji" font-size="20px" fill="#1e1e1e" text-anchor="start" style="white-space: pre;" direction="ltr" dominant-baseline="text-before-edge">- images (Json)</text><text x="0" y="100" font-family="Virgil, Segoe UI Emoji" font-size="20px" fill="#1e1e1e" text-anchor="start" style="white-space: pre;" direction="ltr" dominant-baseline="text-before-edge">- Category</text><text x="0" y="125" font-family="Virgil, Segoe UI Emoji" font-size="20px" fill="#1e1e1e" text-anchor="start" style="white-space: pre;" direction="ltr" dominant-baseline="text-before-edge">- gender Gender</text><text x="0" y="150" font-family="Virgil, Segoe UI Emoji" font-size="20px" fill="#1e1e1e" text-anchor="start" style="white-space: pre;" direction="ltr" dominant-baseline="text-before-edge">- price</text><text x="0" y="175" font-family="Virgil, Segoe UI Emoji" font-size="20px" fill="#1e1e1e" text-anchor="start" style="white-space: pre;" direction="ltr" dominant-baseline="text-before-edge">- sizes Size[]</text><text x="0" y="200" font-family="Virgil, Segoe UI Emoji" font-size="20px" fill="#1e1e1e" text-anchor="start" style="white-space: pre;" direction="ltr" dominant-baseline="text-before-edge">- description</text></g><g stroke-linecap="round" transform="translate(650.9070645150998 479.4003144017455) rotate(0 125.17377254562217 112.78647583692413)"><path d="M32 0 C72.64 -2.12, 114.45 -1.39, 218.35 0 M32 0 C73.02 -0.33, 115.19 1.08, 218.35 0 M218.35 0 C238.54 0.38, 248.72 9.02, 250.35 32 M218.35 0 C237.49 2.24, 249.4 12.38, 250.35 32 M250.35 32 C250.09 71.28, 249.55 109.44, 250.35 193.57 M250.35 32 C251.11 87.19, 252.55 140.99, 250.35 193.57 M250.35 193.57 C251.23 216.18, 239.03 227.14, 218.35 225.57 M250.35 193.57 C248.34 214.21, 237.45 226.2, 218.35 225.57 M218.35 225.57 C149.16 227.4, 77.14 227.68, 32 225.57 M218.35 225.57 C146.9 225.51, 76.02 226.3, 32 225.57 M32 225.57 C12.21 225.74, -0.57 214.26, 0 193.57 M32 225.57 C10.4 226.13, 2.08 216.39, 0 193.57 M0 193.57 C-0.89 132.47, 1.5 70.03, 0 32 M0 193.57 C-0.81 142.98, -2.38 93.05, 0 32 M0 32 C0.69 11.23, 9.06 0.05, 32 0 M0 32 C0.95 10.52, 12.42 -2.04, 32 0" stroke="#1e1e1e" stroke-width="2" fill="none"></path></g><g transform="translate(692.6627816469102 501.3242963165412) rotate(0 89.409912109375 87.5)"><text x="0" y="0" font-family="Virgil, Segoe UI Emoji" font-size="20px" fill="#1e1e1e" text-anchor="start" style="white-space: pre;" direction="ltr" dominant-baseline="text-before-edge">CartItem</text><text x="0" y="25" font-family="Virgil, Segoe UI Emoji" font-size="20px" fill="#1e1e1e" text-anchor="start" style="white-space: pre;" direction="ltr" dominant-baseline="text-before-edge">- id</text><text x="0" y="50" font-family="Virgil, Segoe UI Emoji" font-size="20px" fill="#1e1e1e" text-anchor="start" style="white-space: pre;" direction="ltr" dominant-baseline="text-before-edge">- cartId</text><text x="0" y="75" font-family="Virgil, Segoe UI Emoji" font-size="20px" fill="#1e1e1e" text-anchor="start" style="white-space: pre;" direction="ltr" dominant-baseline="text-before-edge">- productId</text><text x="0" y="100" font-family="Virgil, Segoe UI Emoji" font-size="20px" fill="#1e1e1e" text-anchor="start" style="white-space: pre;" direction="ltr" dominant-baseline="text-before-edge">- quantity</text><text x="0" y="125" font-family="Virgil, Segoe UI Emoji" font-size="20px" fill="#1e1e1e" text-anchor="start" style="white-space: pre;" direction="ltr" dominant-baseline="text-before-edge">- cart Cart</text><text x="0" y="150" font-family="Virgil, Segoe UI Emoji" font-size="20px" fill="#1e1e1e" text-anchor="start" style="white-space: pre;" direction="ltr" dominant-baseline="text-before-edge">- product Product</text></g><g stroke-linecap="round" transform="translate(1428.1934762363408 603.9941308384622) rotate(0 121.82879638671875 77.75272368003897)"><path d="M32 0 C94.32 1.87, 155.05 -0.08, 211.66 0 M32 0 C74.87 1, 119.64 1.28, 211.66 0 M211.66 0 C233.1 -0.42, 242.04 9.45, 243.66 32 M211.66 0 C231.05 1.22, 243.47 12.51, 243.66 32 M243.66 32 C243.17 59.65, 244.06 86.01, 243.66 123.51 M243.66 32 C243.64 63.84, 244.77 96.28, 243.66 123.51 M243.66 123.51 C244.81 146.17, 234.23 157.32, 211.66 155.51 M243.66 123.51 C243.77 145.93, 231.42 153.48, 211.66 155.51 M211.66 155.51 C156.45 153.92, 101.65 154.81, 32 155.51 M211.66 155.51 C151.38 155.08, 89.63 154.97, 32 155.51 M32 155.51 C10.97 155.79, -1.49 143.14, 0 123.51 M32 155.51 C12.51 154.74, -0.07 143.29, 0 123.51 M0 123.51 C0.53 96.09, -1.15 69.39, 0 32 M0 123.51 C-0.87 105.02, 0.11 85.16, 0 32 M0 32 C1.65 9.56, 11.28 -0.38, 32 0 M0 32 C1.22 9.5, 9.86 -0.52, 32 0" stroke="#2f9e44" stroke-width="2" fill="none"></path></g><g transform="translate(1443.353142520291 624.8334235600558) rotate(0 56.5699462890625 62.5)"><text x="0" y="0" font-family="Virgil, Segoe UI Emoji" font-size="20px" fill="#1e1e1e" text-anchor="start" style="white-space: pre;" direction="ltr" dominant-baseline="text-before-edge">Category</text><text x="0" y="25" font-family="Virgil, Segoe UI Emoji" font-size="20px" fill="#1e1e1e" text-anchor="start" style="white-space: pre;" direction="ltr" dominant-baseline="text-before-edge">- Shirt</text><text x="0" y="50" font-family="Virgil, Segoe UI Emoji" font-size="20px" fill="#1e1e1e" text-anchor="start" style="white-space: pre;" direction="ltr" dominant-baseline="text-before-edge">- Sweater</text><text x="0" y="75" font-family="Virgil, Segoe UI Emoji" font-size="20px" fill="#1e1e1e" text-anchor="start" style="white-space: pre;" direction="ltr" dominant-baseline="text-before-edge">- Pants</text><text x="0" y="100" font-family="Virgil, Segoe UI Emoji" font-size="20px" fill="#1e1e1e" text-anchor="start" style="white-space: pre;" direction="ltr" dominant-baseline="text-before-edge">- Accessory</text></g><g stroke-linecap="round"><g transform="translate(630.595167584592 172.8895933264652) rotate(0 -120.23431477272584 -14.339404397750059)"><path d="M-0.06 -0.02 C-40.19 -4.95, -200.18 -24.73, -240.06 -29.42 M-1.55 -1.07 C-41.87 -5.88, -201.13 -23.41, -240.79 -28.28" stroke="#1e1e1e" stroke-width="2" fill="none"></path></g><g transform="translate(630.595167584592 172.8895933264652) rotate(0 -120.23431477272584 -14.339404397750059)"><path d="M-216.47 -34.07 C-225.27 -31.31, -235.27 -28.05, -240.79 -28.28 M-216.47 -34.07 C-225.38 -31.38, -232.63 -29.47, -240.79 -28.28" stroke="#1e1e1e" stroke-width="2" fill="none"></path></g><g transform="translate(630.595167584592 172.8895933264652) rotate(0 -120.23431477272584 -14.339404397750059)"><path d="M-218.44 -17.08 C-226.56 -20.46, -235.84 -23.33, -240.79 -28.28 M-218.44 -17.08 C-226.68 -20.17, -233.26 -24.03, -240.79 -28.28" stroke="#1e1e1e" stroke-width="2" fill="none"></path></g></g><mask></mask><g stroke-linecap="round"><g transform="translate(344.5622870841628 263.66499754162066) rotate(0 3.207248751987777 118.97890904132856)"><path d="M-0.68 0.25 C0.63 39.9, 5.98 199.15, 7.22 238.86 M1.17 -0.67 C2.44 38.57, 5.86 197.69, 6.69 237.21" stroke="#1e1e1e" stroke-width="2" fill="none"></path></g><g transform="translate(344.5622870841628 263.66499754162066) rotate(0 3.207248751987777 118.97890904132856)"><path d="M-2.36 213.9 C0.51 221.12, 3.85 226.12, 6.69 237.21 M-2.36 213.9 C1.08 221.22, 4.79 229.6, 6.69 237.21" stroke="#1e1e1e" stroke-width="2" fill="none"></path></g><g transform="translate(344.5622870841628 263.66499754162066) rotate(0 3.207248751987777 118.97890904132856)"><path d="M14.73 213.54 C13.33 220.75, 12.4 225.84, 6.69 237.21 M14.73 213.54 C12.29 220.93, 10.12 229.44, 6.69 237.21" stroke="#1e1e1e" stroke-width="2" fill="none"></path></g></g><mask></mask><g stroke-linecap="round"><g transform="translate(337.26459767646804 575.9757966915291) rotate(0 -56.99533788029376 -213.739305959719)"><path d="M0.23 -0.97 C-18.76 -36.27, -111.41 -141.2, -113.48 -212.42 C-115.54 -283.64, -28.95 -392.4, -12.17 -428.29 M-1.11 1.13 C-20.25 -34.01, -112.23 -140.04, -114.16 -211.46 C-116.09 -282.88, -29.61 -391.51, -12.69 -427.39" stroke="#1e1e1e" stroke-width="2" fill="none"></path></g><g transform="translate(337.26459767646804 575.9757966915291) rotate(0 -56.99533788029376 -213.739305959719)"><path d="M-17.58 -402.87 C-17.42 -410.3, -16 -418.61, -12.69 -427.39 M-17.58 -402.87 C-15.62 -408.28, -16.21 -413.51, -12.69 -427.39" stroke="#1e1e1e" stroke-width="2" fill="none"></path></g><g transform="translate(337.26459767646804 575.9757966915291) rotate(0 -56.99533788029376 -213.739305959719)"><path d="M-32.19 -411.75 C-27.16 -416.21, -20.8 -421.53, -12.69 -427.39 M-32.19 -411.75 C-26.84 -415.06, -24.03 -418.23, -12.69 -427.39" stroke="#1e1e1e" stroke-width="2" fill="none"></path></g></g><mask></mask><g stroke-linecap="round"><g transform="translate(696.052257377381 563.6655099265182) rotate(0 -148.7971819572149 -4.824692094325144)"><path d="M-0.17 1.09 C-50.07 -0.57, -248.51 -8.37, -298.26 -10.1 M-1.72 0.62 C-51.32 -0.86, -246.79 -6.79, -295.89 -8.79" stroke="#1e1e1e" stroke-width="2" fill="none"></path></g><g transform="translate(696.052257377381 563.6655099265182) rotate(0 -148.7971819572149 -4.824692094325144)"><path d="M-272.12 -16.52 C-279.68 -14.61, -291.62 -12.2, -295.89 -8.79 M-272.12 -16.52 C-280.38 -12.85, -288.76 -10.36, -295.89 -8.79" stroke="#1e1e1e" stroke-width="2" fill="none"></path></g><g transform="translate(696.052257377381 563.6655099265182) rotate(0 -148.7971819572149 -4.824692094325144)"><path d="M-272.71 0.57 C-280.02 -4.26, -291.72 -8.59, -295.89 -8.79 M-272.71 0.57 C-280.86 -1.42, -289.05 -4.59, -295.89 -8.79" stroke="#1e1e1e" stroke-width="2" fill="none"></path></g></g><mask></mask><g stroke-linecap="round"><g transform="translate(816.9853934220013 587.9103652293799) rotate(0 73.80906065448255 -23.4061776393865)"><path d="M-0.03 -0.45 C24.33 -8.59, 122.29 -40.33, 146.95 -47.99 M-1.51 -1.73 C23.19 -9.85, 124.51 -39.27, 149.31 -47.07" stroke="#1e1e1e" stroke-width="2" fill="none"></path></g><g transform="translate(816.9853934220013 587.9103652293799) rotate(0 73.80906065448255 -23.4061776393865)"><path d="M129.28 -32.1 C135.7 -38.65, 141.78 -42.51, 149.31 -47.07 M129.28 -32.1 C135.33 -36.94, 142.68 -41.75, 149.31 -47.07" stroke="#1e1e1e" stroke-width="2" fill="none"></path></g><g transform="translate(816.9853934220013 587.9103652293799) rotate(0 73.80906065448255 -23.4061776393865)"><path d="M124.35 -48.48 C132.68 -49.07, 140.55 -46.97, 149.31 -47.07 M124.35 -48.48 C132 -47.89, 141 -47.22, 149.31 -47.07" stroke="#1e1e1e" stroke-width="2" fill="none"></path></g></g><mask></mask><g stroke-linecap="round" transform="translate(1461.6963784046566 107.13240070140913) rotate(0 92.28366993194447 105.32637347941579)"><path d="M32 0 C72.29 -0.37, 113.69 1.32, 152.57 0 M32 0 C68.83 -0.08, 106.25 -0.76, 152.57 0 M152.57 0 C172.12 -0.87, 183.13 10.73, 184.57 32 M152.57 0 C173.22 2.07, 184.07 12.67, 184.57 32 M184.57 32 C183.63 79.22, 183.75 123.35, 184.57 178.65 M184.57 32 C184.65 71.31, 184.92 109.65, 184.57 178.65 M184.57 178.65 C182.81 198.58, 175.09 212.32, 152.57 210.65 M184.57 178.65 C185.45 202.09, 172.29 211.15, 152.57 210.65 M152.57 210.65 C108.88 210.59, 67.68 212.02, 32 210.65 M152.57 210.65 C125.24 210.26, 96.78 211.8, 32 210.65 M32 210.65 C11.31 211.13, 1.97 201.72, 0 178.65 M32 210.65 C11.04 208.74, -0.43 200.11, 0 178.65 M0 178.65 C-2.06 138.93, -2.8 103.54, 0 32 M0 178.65 C-1.1 136.67, -0.28 94.59, 0 32 M0 32 C-0.97 11.44, 12.6 1.57, 32 0 M0 32 C1.18 10.05, 8.39 1.41, 32 0" stroke="#2f9e44" stroke-width="2" fill="none"></path></g><g stroke-linecap="round" transform="translate(1599.2566903662946 362.0033246754824) rotate(0 83.95069634189474 77.75272368003894)"><path d="M32 0 C58.77 -2.24, 85.47 -1.79, 135.9 0 M32 0 C63.87 0.12, 96.81 0.58, 135.9 0 M135.9 0 C156.64 1.8, 167.47 12.41, 167.9 32 M135.9 0 C157.56 -0.97, 168.65 10.3, 167.9 32 M167.9 32 C167.17 65.55, 165.88 96.84, 167.9 123.51 M167.9 32 C166.87 58.78, 168.35 87.8, 167.9 123.51 M167.9 123.51 C168.67 146.67, 155.84 155.94, 135.9 155.51 M167.9 123.51 C169.28 142.78, 156.64 155.19, 135.9 155.51 M135.9 155.51 C102.08 157.25, 71.98 157.67, 32 155.51 M135.9 155.51 C115.33 156.31, 95.1 156.94, 32 155.51 M32 155.51 C10.99 153.84, -0.37 144.95, 0 123.51 M32 155.51 C9.73 157.48, 1.4 143.92, 0 123.51 M0 123.51 C0.44 104.81, -1.14 83.36, 0 32 M0 123.51 C-0.93 95.59, 0.52 67.68, 0 32 M0 32 C1.03 10.13, 8.69 1.23, 32 0 M0 32 C0.62 10.66, 12.47 -0.3, 32 0" stroke="#2f9e44" stroke-width="2" fill="none"></path></g><g transform="translate(1480.762686349004 119.0710347530518) rotate(0 27.059982299804688 87.5)"><text x="0" y="0" font-family="Virgil, Segoe UI Emoji" font-size="20px" fill="#1e1e1e" text-anchor="start" style="white-space: pre;" direction="ltr" dominant-baseline="text-before-edge">Size</text><text x="0" y="25" font-family="Virgil, Segoe UI Emoji" font-size="20px" fill="#1e1e1e" text-anchor="start" style="white-space: pre;" direction="ltr" dominant-baseline="text-before-edge">- XS</text><text x="0" y="50" font-family="Virgil, Segoe UI Emoji" font-size="20px" fill="#1e1e1e" text-anchor="start" style="white-space: pre;" direction="ltr" dominant-baseline="text-before-edge">- S</text><text x="0" y="75" font-family="Virgil, Segoe UI Emoji" font-size="20px" fill="#1e1e1e" text-anchor="start" style="white-space: pre;" direction="ltr" dominant-baseline="text-before-edge">- M</text><text x="0" y="100" font-family="Virgil, Segoe UI Emoji" font-size="20px" fill="#1e1e1e" text-anchor="start" style="white-space: pre;" direction="ltr" dominant-baseline="text-before-edge">- L</text><text x="0" y="125" font-family="Virgil, Segoe UI Emoji" font-size="20px" fill="#1e1e1e" text-anchor="start" style="white-space: pre;" direction="ltr" dominant-baseline="text-before-edge">- XL</text><text x="0" y="150" font-family="Virgil, Segoe UI Emoji" font-size="20px" fill="#1e1e1e" text-anchor="start" style="white-space: pre;" direction="ltr" dominant-baseline="text-before-edge">- XXL</text></g><g transform="translate(1619.6519658792554 386.6552759623214) rotate(0 38.57997131347656 37.5)"><text x="0" y="0" font-family="Virgil, Segoe UI Emoji" font-size="20px" fill="#1e1e1e" text-anchor="start" style="white-space: pre;" direction="ltr" dominant-baseline="text-before-edge">Gender</text><text x="0" y="25" font-family="Virgil, Segoe UI Emoji" font-size="20px" fill="#1e1e1e" text-anchor="start" style="white-space: pre;" direction="ltr" dominant-baseline="text-before-edge">- Men</text><text x="0" y="50" font-family="Virgil, Segoe UI Emoji" font-size="20px" fill="#1e1e1e" text-anchor="start" style="white-space: pre;" direction="ltr" dominant-baseline="text-before-edge">- Women</text></g><g stroke-linecap="round"><g transform="translate(1104.837425679023 618.6247786083218) rotate(0 152.43786181459927 -0.669589864259649)"><path d="M-1.09 -0.83 C49.62 -1.03, 253.33 -0.54, 304.38 -0.62 M0.54 1.35 C51.04 0.76, 252.5 -2.15, 303.17 -2.36" stroke="#2f9e44" stroke-width="2" fill="none"></path></g><g transform="translate(1104.837425679023 618.6247786083218) rotate(0 152.43786181459927 -0.669589864259649)"><path d="M279.76 6.42 C285.56 3.09, 295.37 1.7, 303.17 -2.36 M279.76 6.42 C286.87 3.11, 294.96 0.02, 303.17 -2.36" stroke="#2f9e44" stroke-width="2" fill="none"></path></g><g transform="translate(1104.837425679023 618.6247786083218) rotate(0 152.43786181459927 -0.669589864259649)"><path d="M279.59 -10.68 C285.53 -8.73, 295.38 -4.84, 303.17 -2.36 M279.59 -10.68 C286.83 -8.79, 294.97 -6.68, 303.17 -2.36" stroke="#2f9e44" stroke-width="2" fill="none"></path></g></g><mask></mask><g stroke-linecap="round"><g transform="translate(1145.713671436822 647.4886940237786) rotate(0 222.80197234709465 -104.75312740226423)"><path d="M1.05 -0.35 C75.29 -35.12, 370.7 -174.69, 444.9 -209.44 M0.14 -1.57 C74.82 -36.06, 372.97 -172.99, 447.24 -207.86" stroke="#2f9e44" stroke-width="2" fill="none"></path></g><g transform="translate(1145.713671436822 647.4886940237786) rotate(0 222.80197234709465 -104.75312740226423)"><path d="M429.53 -190.22 C433.59 -196.05, 438.81 -198.33, 447.24 -207.86 M429.53 -190.22 C436.11 -196.69, 442.89 -203.43, 447.24 -207.86" stroke="#2f9e44" stroke-width="2" fill="none"></path></g><g transform="translate(1145.713671436822 647.4886940237786) rotate(0 222.80197234709465 -104.75312740226423)"><path d="M422.34 -205.74 C428.13 -207.67, 435.19 -205.99, 447.24 -207.86 M422.34 -205.74 C431.49 -206.72, 440.85 -207.9, 447.24 -207.86" stroke="#2f9e44" stroke-width="2" fill="none"></path></g></g><mask></mask><g stroke-linecap="round"><g transform="translate(1125.512800439008 685.623721920103) rotate(0 161.8480286845163 -211.23828865964938)"><path d="M-1.1 -1.06 C34.24 -46.55, 157.75 -202.76, 211.77 -272.89 C265.78 -343.02, 304.36 -396.97, 322.99 -421.85 M0.52 0.99 C36.25 -44.37, 159.79 -201, 213.96 -271.81 C268.12 -342.62, 307.23 -399.02, 325.51 -423.86" stroke="#2f9e44" stroke-width="2" fill="none"></path></g><g transform="translate(1125.512800439008 685.623721920103) rotate(0 161.8480286845163 -211.23828865964938)"><path d="M318.71 -399.81 C318.82 -408.06, 321.03 -414.24, 325.51 -423.86 M318.71 -399.81 C320.18 -408.65, 323.17 -417.08, 325.51 -423.86" stroke="#2f9e44" stroke-width="2" fill="none"></path></g><g transform="translate(1125.512800439008 685.623721920103) rotate(0 161.8480286845163 -211.23828865964938)"><path d="M304.84 -409.8 C308.79 -415.16, 314.85 -418.58, 325.51 -423.86 M304.84 -409.8 C311.18 -415.16, 319.06 -420.07, 325.51 -423.86" stroke="#2f9e44" stroke-width="2" fill="none"></path></g></g><mask></mask><g transform="translate(1520.8362496200025 68.8542757269424) rotate(0 40.389984130859375 17.5)"><text x="40.389984130859375" y="0" font-family="Virgil, Segoe UI Emoji" font-size="28px" fill="#2f9e44" text-anchor="middle" style="white-space: pre;" direction="ltr" dominant-baseline="text-before-edge">Enums</text></g><g stroke-linecap="round"><g transform="translate(534.0492854718489 222.18948740463807) rotate(0 47.67341046489071 -37.82411801909723)"><path d="M0.85 -0.96 C16.78 -13.69, 79.45 -63.93, 95.29 -76.48 M-0.17 1.14 C15.63 -11.44, 78.38 -62.64, 94.31 -75.38" stroke="#1e1e1e" stroke-width="2" fill="none"></path></g><g transform="translate(534.0492854718489 222.18948740463807) rotate(0 47.67341046489071 -37.82411801909723)"><path d="M81.42 -53.96 C83.36 -60.01, 87.1 -64.85, 94.31 -75.38 M81.42 -53.96 C84.25 -60.09, 87.86 -64.43, 94.31 -75.38" stroke="#1e1e1e" stroke-width="2" fill="none"></path></g><g transform="translate(534.0492854718489 222.18948740463807) rotate(0 47.67341046489071 -37.82411801909723)"><path d="M70.67 -67.26 C75.53 -69.75, 82.21 -70.95, 94.31 -75.38 M70.67 -67.26 C76.18 -70.11, 82.45 -71.16, 94.31 -75.38" stroke="#1e1e1e" stroke-width="2" fill="none"></path></g></g><mask></mask><g transform="translate(366.2514320184533 336.3784259744882) rotate(0 132.72988891601565 25)"><text x="0" y="0" font-family="Virgil, Segoe UI Emoji" font-size="20px" fill="#1e1e1e" text-anchor="start" style="white-space: pre;" direction="ltr" dominant-baseline="text-before-edge">each user should only have</text><text x="0" y="25" font-family="Virgil, Segoe UI Emoji" font-size="20px" fill="#1e1e1e" text-anchor="start" style="white-space: pre;" direction="ltr" dominant-baseline="text-before-edge">at most ONE active cart</text></g><g transform="translate(10 258.36498529630603) rotate(0 104.19992065429688 25)"><text x="0" y="0" font-family="Virgil, Segoe UI Emoji" font-size="20px" fill="#1e1e1e" text-anchor="start" style="white-space: pre;" direction="ltr" dominant-baseline="text-before-edge">each cart should be </text><text x="0" y="25" font-family="Virgil, Segoe UI Emoji" font-size="20px" fill="#1e1e1e" text-anchor="start" style="white-space: pre;" direction="ltr" dominant-baseline="text-before-edge">unique to ONE user</text></g><g stroke-linecap="round"><g transform="translate(543.1226024794811 606.1094925574316) rotate(0 62.890678138028875 -31.87690400490635)"><path d="M-0.46 -0.81 C20.32 -11.46, 104.39 -52.24, 125.52 -62.77 M1.51 1.38 C22.03 -9.08, 103.71 -53.67, 124.43 -64.38" stroke="#1e1e1e" stroke-width="2" fill="none"></path></g><g transform="translate(543.1226024794811 606.1094925574316) rotate(0 62.890678138028875 -31.87690400490635)"><path d="M107.72 -45.79 C112.4 -53.06, 121.58 -58.61, 124.43 -64.38 M107.72 -45.79 C111.61 -51.62, 116.7 -56.73, 124.43 -64.38" stroke="#1e1e1e" stroke-width="2" fill="none"></path></g><g transform="translate(543.1226024794811 606.1094925574316) rotate(0 62.890678138028875 -31.87690400490635)"><path d="M99.68 -60.88 C107.48 -62.52, 119.65 -62.48, 124.43 -64.38 M99.68 -60.88 C105.66 -62.57, 112.98 -63.5, 124.43 -64.38" stroke="#1e1e1e" stroke-width="2" fill="none"></path></g></g><mask></mask><g transform="translate(463.4129633618105 720.8061511910105) rotate(0 152.11990356445312 37.5)"><text x="0" y="0" font-family="Virgil, Segoe UI Emoji" font-size="20px" fill="#1e1e1e" text-anchor="start" style="white-space: pre;" direction="ltr" dominant-baseline="text-before-edge">a cart can contain multiple </text><text x="0" y="25" font-family="Virgil, Segoe UI Emoji" font-size="20px" fill="#1e1e1e" text-anchor="start" style="white-space: pre;" direction="ltr" dominant-baseline="text-before-edge">cart items and each cart item</text><text x="0" y="50" font-family="Virgil, Segoe UI Emoji" font-size="20px" fill="#1e1e1e" text-anchor="start" style="white-space: pre;" direction="ltr" dominant-baseline="text-before-edge">must belong to a cart</text></g><g transform="translate(786.2638601116086 395.6409207231346) rotate(0 186.1898193359375 25)"><text x="0" y="0" font-family="Virgil, Segoe UI Emoji" font-size="20px" fill="#1e1e1e" text-anchor="start" style="white-space: pre;" direction="ltr" dominant-baseline="text-before-edge">each cart item should point to</text><text x="0" y="25" font-family="Virgil, Segoe UI Emoji" font-size="20px" fill="#1e1e1e" text-anchor="start" style="white-space: pre;" direction="ltr" dominant-baseline="text-before-edge">a product id from the products table</text></g><g transform="translate(1135.8559895842127 158.4255982191576) rotate(0 133.67990112304688 75)"><text x="0" y="0" font-family="Virgil, Segoe UI Emoji" font-size="20px" fill="#1e1e1e" text-anchor="start" style="white-space: pre;" direction="ltr" dominant-baseline="text-before-edge">each product should</text><text x="0" y="25" font-family="Virgil, Segoe UI Emoji" font-size="20px" fill="#1e1e1e" text-anchor="start" style="white-space: pre;" direction="ltr" dominant-baseline="text-before-edge">have multiple sizes</text><text x="0" y="50" font-family="Virgil, Segoe UI Emoji" font-size="20px" fill="#1e1e1e" text-anchor="start" style="white-space: pre;" direction="ltr" dominant-baseline="text-before-edge"> - gathered from enum</text><text x="0" y="75" font-family="Virgil, Segoe UI Emoji" font-size="20px" fill="#1e1e1e" text-anchor="start" style="white-space: pre;" direction="ltr" dominant-baseline="text-before-edge">    of sizes</text><text x="0" y="100" font-family="Virgil, Segoe UI Emoji" font-size="20px" fill="#1e1e1e" text-anchor="start" style="white-space: pre;" direction="ltr" dominant-baseline="text-before-edge"> - will need to worry about</text><text x="0" y="125" font-family="Virgil, Segoe UI Emoji" font-size="20px" fill="#1e1e1e" text-anchor="start" style="white-space: pre;" direction="ltr" dominant-baseline="text-before-edge">    quantity in stock</text></g><g transform="translate(1208.8605303480817 481.3330175156775) rotate(333.9334199698496 195.68983459472656 12.5)"><text x="0" y="0" font-family="Virgil, Segoe UI Emoji" font-size="20px" fill="#1e1e1e" text-anchor="start" style="white-space: pre;" direction="ltr" dominant-baseline="text-before-edge">each product should belong to a gender</text></g><g transform="translate(1161.2463124042065 760.6791913016949) rotate(0 133.889892578125 37.5)"><text x="0" y="0" font-family="Virgil, Segoe UI Emoji" font-size="20px" fill="#1e1e1e" text-anchor="start" style="white-space: pre;" direction="ltr" dominant-baseline="text-before-edge">each product will belong </text><text x="0" y="25" font-family="Virgil, Segoe UI Emoji" font-size="20px" fill="#1e1e1e" text-anchor="start" style="white-space: pre;" direction="ltr" dominant-baseline="text-before-edge">to a specific category</text><text x="0" y="50" font-family="Virgil, Segoe UI Emoji" font-size="20px" fill="#1e1e1e" text-anchor="start" style="white-space: pre;" direction="ltr" dominant-baseline="text-before-edge">    - will help with seaching</text></g><g transform="translate(749.4865661957255 10) rotate(0 294.6858825683594 17.5)"><text x="0" y="0" font-family="Virgil, Segoe UI Emoji" font-size="28px" fill="#1e1e1e" text-anchor="start" style="white-space: pre;" direction="ltr" dominant-baseline="text-before-edge">Alo Clone Database Schema and Relations</text></g><g stroke-linecap="round"><g transform="translate(745.8676992192402 49.28049577271696) rotate(0 301.3786074805219 0.9834081683148526)"><path d="M-0.35 -1.04 C99.99 -0.82, 502.51 0.48, 603.16 0.84 M1.67 1.03 C101.78 1.39, 502.17 1.62, 602.43 1.79" stroke="#1e1e1e" stroke-width="2" fill="none"></path></g></g><mask></mask><g transform="translate(633.2758217758123 963.6941981700884) rotate(0 395.2758178710937 17.5)"><text x="0" y="0" font-family="Virgil, Segoe UI Emoji" font-size="28px" fill="#1e1e1e" text-anchor="start" style="white-space: pre;" direction="ltr" dominant-baseline="text-before-edge">*** will need to add functionality for order checkout ***</text></g><g stroke-linecap="round" transform="translate(583.443033191873 953.1174752732982) rotate(0 452.74763813105926 29.335412110223956)"><path d="M14.67 0 C243.72 2.17, 473.85 1.33, 890.83 0 M14.67 0 C206.68 3.45, 398.97 3.72, 890.83 0 M890.83 0 C901.6 -0.19, 904.48 3.19, 905.5 14.67 M890.83 0 C898.69 0.5, 907.73 5.53, 905.5 14.67 M905.5 14.67 C905.59 23.23, 906.87 35.56, 905.5 44 M905.5 14.67 C906.26 25.61, 906.4 36.12, 905.5 44 M905.5 44 C906.89 53.37, 901.63 59.76, 890.83 58.67 M905.5 44 C906.47 52.43, 901.23 59.94, 890.83 58.67 M890.83 58.67 C685.07 59.21, 480.11 58.58, 14.67 58.67 M890.83 58.67 C640.52 55.91, 390.6 55.85, 14.67 58.67 M14.67 58.67 C4.32 57.16, 0.05 54.25, 0 44 M14.67 58.67 C7.12 57.83, 1.24 55.67, 0 44 M0 44 C-1.26 36.66, -0.55 29.89, 0 14.67 M0 44 C0.85 34.65, -0.44 24.94, 0 14.67 M0 14.67 C1.92 3.21, 5.16 1.58, 14.67 0 M0 14.67 C2.01 4.57, 2.74 -1.78, 14.67 0" stroke="#1e1e1e" stroke-width="2" fill="none"></path></g></svg>